<?xml version="1.0" encoding="UTF-8"?>
<svg id="Layer_1" data-name="Layer 1" xmlns="http://www.w3.org/2000/svg" xmlns:xlink="http://www.w3.org/1999/xlink" viewBox="0 0 500 500">
  <defs>
    <style>
      .cls-1 {
        fill: url(#linear-gradient-3);
      }

      .cls-2 {
        fill: url(#linear-gradient-2);
      }

      .cls-3 {
        fill: url(#linear-gradient);
      }
    </style>
    <linearGradient id="linear-gradient" x1="283.97" y1="204.79" x2="500" y2="204.79" gradientTransform="translate(0 499.27) scale(1 -1)" gradientUnits="userSpaceOnUse">
      <stop offset="0" stop-color="#fb43ff"/>
      <stop offset=".97" stop-color="#fb406d"/>
    </linearGradient>
    <linearGradient id="linear-gradient-2" x1="140.19" y1="249.27" x2="355.37" y2="249.27" gradientTransform="translate(0 499.27) scale(1 -1)" gradientUnits="userSpaceOnUse">
      <stop offset="0" stop-color="#fb43ff"/>
      <stop offset=".97" stop-color="#fb406d"/>
    </linearGradient>
    <linearGradient id="linear-gradient-3" x1="0" y1="288.84" x2="217.65" y2="288.84" gradientTransform="translate(0 499.27) scale(1 -1)" gradientUnits="userSpaceOnUse">
      <stop offset="0" stop-color="#fb43ff"/>
      <stop offset=".97" stop-color="#fb406d"/>
    </linearGradient>
  </defs>
  <path class="cls-3" d="M303.42,365.12c35.36-17.99,71.97-33.8,107.29-51.91,1.48-.64,2.15-2.23,1.63-3.79l-56.68-114.99c-.46-.93-.86-1.89-1.14-2.89-.63-2.22-.9-4.47-.81-6.67.29-7.14,4.89-13.39,11.47-16.18,11.28-4.79,30.16-17.19,39.09-16.84,6.49.26,10.86,3.24,14.27,8.42.34.52.65,1.07.93,1.63,24.29,48.05,47.47,96.63,70.78,145.16,5.12,10.66,12.01,18.71,9.06,31.72-3.04,13.35-13.21,16.9-23.7,22.29-49.63,25.5-100.28,49.03-150.25,73.85-.42.21-.86.41-1.3.58-7.87,3.1-14.91,1.74-20.26-5.23-3.32-4.33-17.64-32.97-18.99-38.12-4-15.28,7.46-21.38,18.63-27.06h0Z"/>
  <path class="cls-2" d="M218.35,438.46c-2.09,5.33-6.39,10.83-12.12,10.83-15.9,0-38.11.19-53.06.19-8.59.72-15.37-8.38-12.17-16.42,44.57-124,89.8-248.09,136.43-371.28,1.53-4.04,4.41-7.47,8.24-9.44,2.2-1.13,4.62-1.66,7.14-1.66,16.77,0,34.25-.19,51-.19,5.01,0,10.83,4.36,11.47,9.64.79,6.42-3.73,16.92-5.94,23.27-42.43,117.89-85.52,238.7-130.99,355.07h0Z"/>
  <path class="cls-1" d="M197.53,141.63c-35.91,16.86-73,31.5-108.88,48.47-1.5.6-2.22,2.16-1.74,3.73l52.99,116.74c.43.94.79,1.92,1.05,2.92.56,2.24.76,4.5.6,6.69-.52,7.13-5.31,13.22-11.97,15.81-11.42,4.43-30.69,16.23-39.61,15.59-6.48-.47-10.76-3.58-14-8.87-.33-.53-.61-1.09-.88-1.66-22.75-48.8-44.38-98.09-66.13-147.33-4.78-10.81-11.42-19.08-8.05-32,3.37-12.91,13.75-16.47,24.4-21.52,50.42-23.91,101.79-45.82,152.53-69.05.43-.2.87-.38,1.32-.55,7.97-2.85,14.96-1.26,20.08,5.87,3.18,4.43,16.58,33.51,17.77,38.7,3.51,15.4-8.14,21.14-19.48,26.46h-.01Z"/>
</svg>