<?xml version="1.0" encoding="UTF-8"?>
<svg id="Layer_1" data-name="Layer 1" xmlns="http://www.w3.org/2000/svg" xmlns:xlink="http://www.w3.org/1999/xlink" viewBox="0 0 757.91 751.46">
  <defs>
    <style>
      .cls-1 {
        fill: url(#linear-gradient-3);
      }

      .cls-2 {
        fill: url(#linear-gradient-2);
      }

      .cls-3 {
        fill: url(#linear-gradient);
      }
    </style>
    <linearGradient id="linear-gradient" x1="413.32" y1="882.03" x2="757.91" y2="882.03" gradientTransform="translate(0 -358.08)" gradientUnits="userSpaceOnUse">
      <stop offset="0" stop-color="#fb43ff"/>
      <stop offset=".97" stop-color="#fb406d"/>
    </linearGradient>
    <linearGradient id="linear-gradient-2" x1="222.29" y1="733.81" x2="552.02" y2="733.81" gradientTransform="translate(0 -358.08)" gradientUnits="userSpaceOnUse">
      <stop offset="0" stop-color="#fb43ff"/>
      <stop offset=".97" stop-color="#fb406d"/>
    </linearGradient>
    <linearGradient id="linear-gradient-3" x1="0" y1="515.54" x2="364.57" y2="515.54" gradientTransform="translate(0 752) scale(1 -1)" gradientUnits="userSpaceOnUse">
      <stop offset="0" stop-color="#fb43ff"/>
      <stop offset=".97" stop-color="#fb406d"/>
    </linearGradient>
  </defs>
  <path class="cls-3" d="M444.33,636.66c56.4-28.7,114.8-53.91,171.14-82.8,2.36-1.02,3.44-3.56,2.59-6.04l-90.41-183.43c-.73-1.49-1.37-3.01-1.82-4.61-1.01-3.55-1.44-7.13-1.3-10.65.47-11.39,7.79-21.35,18.29-25.81,17.99-7.65,48.11-27.42,62.36-26.86,10.36.42,17.33,5.17,22.77,13.44.54.83,1.03,1.71,1.48,2.6,38.74,76.65,75.72,154.14,112.9,231.55,8.17,17,19.16,29.85,14.45,50.61-4.84,21.3-21.07,26.96-37.81,35.55-79.17,40.68-159.96,78.22-239.68,117.81-.67.34-1.37.65-2.07.93-12.56,4.95-23.79,2.77-32.32-8.34-5.3-6.9-28.14-52.59-30.28-60.81-6.38-24.38,11.9-34.11,29.71-43.17h0v.03Z"/>
  <path class="cls-2" d="M342.06,664.52c-3.2,8.17-9.8,16.6-18.58,16.6-24.36,0-58.39.29-81.3.29-13.16,1.1-23.55-12.84-18.66-25.16,68.3-190.01,137.6-380.17,209.06-568.94,2.34-6.18,6.75-11.45,12.63-14.47,3.38-1.73,7.08-2.55,10.94-2.55,25.7,0,52.49-.29,78.15-.29,7.68,0,16.59,6.69,17.58,14.76,1.21,9.84-5.72,25.92-9.1,35.66-65.02,180.65-131.05,365.78-200.73,544.11h0Z"/>
  <path class="cls-1" d="M330.86,121.21c-60.15,28.24-122.28,52.75-182.38,81.19-2.51,1-3.72,3.62-2.92,6.25l88.76,195.53c.72,1.58,1.33,3.21,1.76,4.89.95,3.75,1.27,7.54,1.01,11.21-.86,11.94-8.89,22.14-20.05,26.48-19.13,7.42-51.41,27.18-66.34,26.11-10.86-.78-18.02-6-23.45-14.86-.55-.89-1.02-1.83-1.47-2.78-38.11-81.74-74.33-164.3-110.76-246.78-8.01-18.11-19.12-31.97-13.48-53.6s23.02-27.59,40.87-36.05C126.87,78.76,212.91,42.06,297.9,3.16c.72-.33,1.46-.64,2.2-.92,13.34-4.77,25.06-2.11,33.64,9.83,5.33,7.41,27.78,56.12,29.76,64.83,5.89,25.8-13.63,35.41-32.62,44.32h-.02Z"/>
</svg>