<?xml version="1.0" encoding="utf-8"?>
<!-- Generator: Adobe Illustrator 27.5.0, SVG Export Plug-In . SVG Version: 6.00 Build 0)  -->
<svg version="1.1" id="Layer_1" xmlns="http://www.w3.org/2000/svg" xmlns:xlink="http://www.w3.org/1999/xlink" x="0px" y="0px"
	 viewBox="0 0 160.9 157" style="enable-background:new 0 0 160.9 157;" xml:space="preserve">
<style type="text/css">
	.st0{fill:#00EEBC;}
	.st1{fill:#19ABFF;}
	.st2{fill:#5922AF;}
</style>
<g>
	<g>
		<g>
			<g>
				<path class="st0" d="M16.6,141.7c-4.2-1.2-7.9-4-10.1-8.1c-4.5-8.2-1.6-18.5,6.7-23.1l43.3-23.9L32.6,43.3
					C28,35.1,31,24.8,39.2,20.2s18.5-1.5,23.1,6.7l32.1,58.2c4.5,8.2,1.6,18.5-6.7,23.1l-58.2,32.1
					C25.4,142.5,20.8,142.9,16.6,141.7z"/>
				<path class="st1" d="M144.2,23.2c4.2,1.2,7.9,4,10.1,8.1c4.5,8.2,1.6,18.5-6.7,23.1l-43.3,23.9l23.9,43.3
					c4.5,8.2,1.6,18.5-6.7,23.1s-18.5,1.5-23.1-6.7l-32-58.2c-4.5-8.2-1.6-18.5,6.7-23.1l58.2-32.1C135.4,22.3,140,22,144.2,23.2z"
					/>
				<path class="st2" d="M102.4,5.5c-4.4-1.6-9.1-1.2-13,0.7s-7.1,5.2-8.7,9.6L40.5,129.9c-3.1,8.8,1.5,18.5,10.3,21.7
					c4.4,1.6,9.1,1.2,13-0.7s7.1-5.2,8.7-9.6l40.3-114.1C115.9,18.3,111.2,8.6,102.4,5.5z"/>
			</g>
		</g>
	</g>
</g>
</svg>
